# xmcd
#
# Track frame offsets:
#	150
#	13162
#	33000
#	43300
#	56812
#	69450
#	83887
#	95737
#	111375
#	124750
#	138112
#	148775
#	164525
#	181175
#	194062
#	206475
#
# Disc length: 2932 seconds
#
# Revision: 0
# Processed by: cddbd v1.5.2PL0 Copyright (c) Steve Scherf et al.
# Submitted via: FairStars CD Ripper 1.80
#
DISCID=f00b7210
DTITLE=Nashville Session Singers - Country Christmas
DYEAR=1995
DGENRE=Christmas
TTITLE0=C-H-R-I-S-T-M-A-S
TTITLE1=Tennessee Christmas
TTITLE2=We Neen A Little Christmas
TTITLE3=Christmas Time's A-Comin'
TTITLE4=How Do I Wrap My Heart Up For Christmas
TTITLE5=A Christmas Letter
TTITLE6=Til Santa's Gone ( I Just Can't Wait )
TTITLE7=Christmas To Remember
TTITLE8=I Only Want you For Christmas
TTITLE9=Rockin' Little Christmas
TTITLE10=Santa Looked A Lot Like Daddy
TTITLE11=Christmas In Dixie
TTITLE12=Hard Candy Christmas
TTITLE13=Old Christmas Card
TTITLE14=If We Make It Through December
TTITLE15=I'll Be Home For Christmas
EXTD=
EXTT0=
EXTT1=
EXTT2=
EXTT3=
EXTT4=
EXTT5=
EXTT6=
EXTT7=
EXTT8=
EXTT9=
EXTT10=
EXTT11=
EXTT12=
EXTT13=
EXTT14=
EXTT15=
PLAYORDER=
